STARTFONT 2.1
COMMENT
COMMENT Converted from OpenType font "small_5x3.ttf" by "otf2bdf 3.0".
COMMENT
FONT -FreeType-Small 5x3-Medium-R-Normal--17-120-100-100-P-67-ISO10646-1
SIZE 12 100 100
FONTBOUNDINGBOX 11 14 0 -2
STARTPROPERTIES 19
FOUNDRY "FreeType"
FAMILY_NAME "Small 5x3"
WEIGHT_NAME "Medium"
SLANT "R"
SETWIDTH_NAME "Normal"
ADD_STYLE_NAME ""
PIXEL_SIZE 17
POINT_SIZE 120
RESOLUTION_X 100
RESOLUTION_Y 100
SPACING "P"
AVERAGE_WIDTH 67
CHARSET_REGISTRY "ISO10646"
CHARSET_ENCODING "1"
FONT_ASCENT 12
FONT_DESCENT 2
COPYRIGHT "Copyright soxhead2000 2010"
_OTF_FONTFILE "small_5x3.ttf"
_OTF_PSNAME "Small-5x3"
ENDPROPERTIES
CHARS 359
STARTCHAR 0000
ENCODING 0
SWIDTH 0 0
DWIDTH 0 0
BBX 0 0 0 0
BITMAP
ENDCHAR
STARTCHAR 000D
ENCODING 13
SWIDTH 0 0
DWIDTH 0 0
BBX 0 0 0 0
BITMAP
ENDCHAR
STARTCHAR 0020
ENCODING 32
SWIDTH 480 0
DWIDTH 8 0
BBX 0 0 0 0
BITMAP
ENDCHAR
STARTCHAR 0021
ENCODING 33
SWIDTH 240 0
DWIDTH 4 0
BBX 2 10 0 0
BITMAP
C0
C0
C0
C0
C0
C0
00
00
C0
C0
ENDCHAR
STARTCHAR 0022
ENCODING 34
SWIDTH 480 0
DWIDTH 8 0
BBX 6 4 0 6
BITMAP
CC
CC
CC
CC
ENDCHAR
STARTCHAR 0023
ENCODING 35
SWIDTH 480 0
DWIDTH 8 0
BBX 6 10 0 0
BITMAP
CC
CC
FC
FC
CC
CC
FC
FC
CC
CC
ENDCHAR
STARTCHAR 0024
ENCODING 36
SWIDTH 480 0
DWIDTH 8 0
BBX 6 10 0 0
BITMAP
FC
FC
F0
F0
FC
FC
3C
3C
FC
FC
ENDCHAR
STARTCHAR 0025
ENCODING 37
SWIDTH 480 0
DWIDTH 8 0
BBX 6 10 0 0
BITMAP
C0
C0
0C
0C
30
30
C0
C0
0C
0C
ENDCHAR
STARTCHAR 0026
ENCODING 38
SWIDTH 540 0
DWIDTH 9 0
BBX 7 10 0 0
BITMAP
30
30
FE
FE
C0
C0
FE
FE
30
30
ENDCHAR
STARTCHAR 0027
ENCODING 39
SWIDTH 240 0
DWIDTH 4 0
BBX 2 4 0 6
BITMAP
C0
C0
C0
C0
ENDCHAR
STARTCHAR 0028
ENCODING 40
SWIDTH 360 0
DWIDTH 6 0
BBX 4 10 0 0
BITMAP
30
30
C0
C0
C0
C0
C0
C0
30
30
ENDCHAR
STARTCHAR 0029
ENCODING 41
SWIDTH 360 0
DWIDTH 6 0
BBX 4 10 0 0
BITMAP
C0
C0
30
30
30
30
30
30
C0
C0
ENDCHAR
STARTCHAR 002A
ENCODING 42
SWIDTH 480 0
DWIDTH 8 0
BBX 6 6 0 2
BITMAP
30
30
CC
CC
30
30
ENDCHAR
STARTCHAR 002B
ENCODING 43
SWIDTH 480 0
DWIDTH 8 0
BBX 6 6 0 2
BITMAP
30
30
FC
FC
30
30
ENDCHAR
STARTCHAR 002C
ENCODING 44
SWIDTH 360 0
DWIDTH 6 0
BBX 4 4 0 0
BITMAP
30
30
F0
F0
ENDCHAR
STARTCHAR 002D
ENCODING 45
SWIDTH 480 0
DWIDTH 8 0
BBX 6 2 0 4
BITMAP
FC
FC
ENDCHAR
STARTCHAR 002E
ENCODING 46
SWIDTH 240 0
DWIDTH 4 0
BBX 2 2 0 0
BITMAP
C0
C0
ENDCHAR
STARTCHAR 002F
ENCODING 47
SWIDTH 480 0
DWIDTH 8 0
BBX 6 6 0 2
BITMAP
0C
0C
30
30
C0
C0
ENDCHAR
STARTCHAR 0030
ENCODING 48
SWIDTH 480 0
DWIDTH 8 0
BBX 6 10 0 0
BITMAP
FC
FC
CC
CC
CC
CC
CC
CC
FC
FC
ENDCHAR
STARTCHAR 0031
ENCODING 49
SWIDTH 480 0
DWIDTH 8 0
BBX 6 10 0 0
BITMAP
F0
F0
30
30
30
30
30
30
FC
FC
ENDCHAR
STARTCHAR 0032
ENCODING 50
SWIDTH 480 0
DWIDTH 8 0
BBX 6 10 0 0
BITMAP
FC
FC
0C
0C
FC
FC
C0
C0
FC
FC
ENDCHAR
STARTCHAR 0033
ENCODING 51
SWIDTH 480 0
DWIDTH 8 0
BBX 6 10 0 0
BITMAP
FC
FC
0C
0C
FC
FC
0C
0C
FC
FC
ENDCHAR
STARTCHAR 0034
ENCODING 52
SWIDTH 480 0
DWIDTH 8 0
BBX 6 10 0 0
BITMAP
CC
CC
CC
CC
FC
FC
0C
0C
0C
0C
ENDCHAR
STARTCHAR 0035
ENCODING 53
SWIDTH 480 0
DWIDTH 8 0
BBX 6 10 0 0
BITMAP
FC
FC
C0
C0
FC
FC
0C
0C
FC
FC
ENDCHAR
STARTCHAR 0036
ENCODING 54
SWIDTH 480 0
DWIDTH 8 0
BBX 6 10 0 0
BITMAP
FC
FC
C0
C0
FC
FC
CC
CC
FC
FC
ENDCHAR
STARTCHAR 0037
ENCODING 55
SWIDTH 480 0
DWIDTH 8 0
BBX 6 10 0 0
BITMAP
FC
FC
0C
0C
0C
0C
0C
0C
0C
0C
ENDCHAR
STARTCHAR 0038
ENCODING 56
SWIDTH 480 0
DWIDTH 8 0
BBX 6 10 0 0
BITMAP
FC
FC
CC
CC
FC
FC
CC
CC
FC
FC
ENDCHAR
STARTCHAR 0039
ENCODING 57
SWIDTH 480 0
DWIDTH 8 0
BBX 6 10 0 0
BITMAP
FC
FC
CC
CC
FC
FC
0C
0C
FC
FC
ENDCHAR
STARTCHAR 003A
ENCODING 58
SWIDTH 240 0
DWIDTH 4 0
BBX 2 6 0 2
BITMAP
C0
C0
00
00
C0
C0
ENDCHAR
STARTCHAR 003B
ENCODING 59
SWIDTH 360 0
DWIDTH 6 0
BBX 4 8 0 0
BITMAP
30
30
00
00
30
30
F0
F0
ENDCHAR
STARTCHAR 003C
ENCODING 60
SWIDTH 480 0
DWIDTH 8 0
BBX 6 10 0 0
BITMAP
0C
0C
30
30
C0
C0
30
30
0C
0C
ENDCHAR
STARTCHAR 003D
ENCODING 61
SWIDTH 480 0
DWIDTH 8 0
BBX 6 6 0 2
BITMAP
FC
FC
00
00
FC
FC
ENDCHAR
STARTCHAR 003E
ENCODING 62
SWIDTH 480 0
DWIDTH 8 0
BBX 6 10 0 0
BITMAP
C0
C0
30
30
0C
0C
30
30
C0
C0
ENDCHAR
STARTCHAR 003F
ENCODING 63
SWIDTH 480 0
DWIDTH 8 0
BBX 6 10 0 0
BITMAP
FC
FC
0C
0C
3C
3C
00
00
30
30
ENDCHAR
STARTCHAR 0040
ENCODING 64
SWIDTH 480 0
DWIDTH 8 0
BBX 6 10 0 0
BITMAP
FC
FC
CC
CC
CC
CC
C0
C0
FC
FC
ENDCHAR
STARTCHAR 0041
ENCODING 65
SWIDTH 480 0
DWIDTH 8 0
BBX 6 10 0 0
BITMAP
FC
FC
CC
CC
FC
FC
CC
CC
CC
CC
ENDCHAR
STARTCHAR 0042
ENCODING 66
SWIDTH 480 0
DWIDTH 8 0
BBX 6 10 0 0
BITMAP
FC
FC
CC
CC
F0
F0
CC
CC
FC
FC
ENDCHAR
STARTCHAR 0043
ENCODING 67
SWIDTH 540 0
DWIDTH 9 0
BBX 7 10 0 0
BITMAP
FE
FE
C0
C0
C0
C0
C0
C0
FE
FE
ENDCHAR
STARTCHAR 0044
ENCODING 68
SWIDTH 480 0
DWIDTH 8 0
BBX 6 10 0 0
BITMAP
F0
F0
CC
CC
CC
CC
CC
CC
F0
F0
ENDCHAR
STARTCHAR 0045
ENCODING 69
SWIDTH 540 0
DWIDTH 9 0
BBX 7 10 0 0
BITMAP
FE
FE
C0
C0
FE
FE
C0
C0
FE
FE
ENDCHAR
STARTCHAR 0046
ENCODING 70
SWIDTH 540 0
DWIDTH 9 0
BBX 7 10 0 0
BITMAP
FE
FE
C0
C0
FE
FE
C0
C0
C0
C0
ENDCHAR
STARTCHAR 0047
ENCODING 71
SWIDTH 480 0
DWIDTH 8 0
BBX 6 10 0 0
BITMAP
FC
FC
C0
C0
CC
CC
CC
CC
FC
FC
ENDCHAR
STARTCHAR 0048
ENCODING 72
SWIDTH 480 0
DWIDTH 8 0
BBX 6 10 0 0
BITMAP
CC
CC
CC
CC
FC
FC
CC
CC
CC
CC
ENDCHAR
STARTCHAR 0049
ENCODING 73
SWIDTH 480 0
DWIDTH 8 0
BBX 6 10 0 0
BITMAP
FC
FC
30
30
30
30
30
30
FC
FC
ENDCHAR
STARTCHAR 004A
ENCODING 74
SWIDTH 480 0
DWIDTH 8 0
BBX 6 10 0 0
BITMAP
0C
0C
0C
0C
0C
0C
CC
CC
FC
FC
ENDCHAR
STARTCHAR 004B
ENCODING 75
SWIDTH 480 0
DWIDTH 8 0
BBX 6 10 0 0
BITMAP
CC
CC
CC
CC
F0
F0
CC
CC
CC
CC
ENDCHAR
STARTCHAR 004C
ENCODING 76
SWIDTH 540 0
DWIDTH 9 0
BBX 7 10 0 0
BITMAP
C0
C0
C0
C0
C0
C0
C0
C0
FE
FE
ENDCHAR
STARTCHAR 004D
ENCODING 77
SWIDTH 720 0
DWIDTH 12 0
BBX 10 10 0 0
BITMAP
FFC0
FFC0
CCC0
CCC0
CCC0
CCC0
CCC0
CCC0
CCC0
CCC0
ENDCHAR
STARTCHAR 004E
ENCODING 78
SWIDTH 480 0
DWIDTH 8 0
BBX 6 10 0 0
BITMAP
FC
FC
CC
CC
CC
CC
CC
CC
CC
CC
ENDCHAR
STARTCHAR 004F
ENCODING 79
SWIDTH 480 0
DWIDTH 8 0
BBX 6 10 0 0
BITMAP
FC
FC
CC
CC
CC
CC
CC
CC
FC
FC
ENDCHAR
STARTCHAR 0050
ENCODING 80
SWIDTH 480 0
DWIDTH 8 0
BBX 6 10 0 0
BITMAP
FC
FC
CC
CC
FC
FC
C0
C0
C0
C0
ENDCHAR
STARTCHAR 0051
ENCODING 81
SWIDTH 480 0
DWIDTH 8 0
BBX 6 12 0 -2
BITMAP
FC
FC
CC
CC
CC
CC
CC
CC
FC
FC
30
30
ENDCHAR
STARTCHAR 0052
ENCODING 82
SWIDTH 480 0
DWIDTH 8 0
BBX 6 10 0 0
BITMAP
FC
FC
CC
CC
F0
F0
CC
CC
CC
CC
ENDCHAR
STARTCHAR 0053
ENCODING 83
SWIDTH 480 0
DWIDTH 8 0
BBX 6 10 0 0
BITMAP
FC
FC
C0
C0
FC
FC
0C
0C
FC
FC
ENDCHAR
STARTCHAR 0054
ENCODING 84
SWIDTH 480 0
DWIDTH 8 0
BBX 6 10 0 0
BITMAP
FC
FC
30
30
30
30
30
30
30
30
ENDCHAR
STARTCHAR 0055
ENCODING 85
SWIDTH 480 0
DWIDTH 8 0
BBX 6 10 0 0
BITMAP
CC
CC
CC
CC
CC
CC
CC
CC
FC
FC
ENDCHAR
STARTCHAR 0056
ENCODING 86
SWIDTH 480 0
DWIDTH 8 0
BBX 6 10 0 0
BITMAP
CC
CC
CC
CC
CC
CC
CC
CC
30
30
ENDCHAR
STARTCHAR 0057
ENCODING 87
SWIDTH 720 0
DWIDTH 12 0
BBX 10 10 0 0
BITMAP
CCC0
CCC0
CCC0
CCC0
CCC0
CCC0
CCC0
CCC0
FFC0
FFC0
ENDCHAR
STARTCHAR 0058
ENCODING 88
SWIDTH 480 0
DWIDTH 8 0
BBX 6 10 0 0
BITMAP
CC
CC
CC
CC
30
30
CC
CC
CC
CC
ENDCHAR
STARTCHAR 0059
ENCODING 89
SWIDTH 480 0
DWIDTH 8 0
BBX 6 10 0 0
BITMAP
CC
CC
CC
CC
FC
FC
30
30
30
30
ENDCHAR
STARTCHAR 005A
ENCODING 90
SWIDTH 480 0
DWIDTH 8 0
BBX 6 10 0 0
BITMAP
FC
FC
0C
0C
30
30
C0
C0
FC
FC
ENDCHAR
STARTCHAR 005B
ENCODING 91
SWIDTH 360 0
DWIDTH 6 0
BBX 4 10 0 0
BITMAP
F0
F0
C0
C0
C0
C0
C0
C0
F0
F0
ENDCHAR
STARTCHAR 005C
ENCODING 92
SWIDTH 480 0
DWIDTH 8 0
BBX 6 6 0 2
BITMAP
C0
C0
30
30
0C
0C
ENDCHAR
STARTCHAR 005D
ENCODING 93
SWIDTH 360 0
DWIDTH 6 0
BBX 4 10 0 0
BITMAP
F0
F0
30
30
30
30
30
30
F0
F0
ENDCHAR
STARTCHAR 005E
ENCODING 94
SWIDTH 480 0
DWIDTH 8 0
BBX 6 4 0 6
BITMAP
30
30
CC
CC
ENDCHAR
STARTCHAR 005F
ENCODING 95
SWIDTH 480 0
DWIDTH 8 0
BBX 6 2 0 0
BITMAP
FC
FC
ENDCHAR
STARTCHAR 0060
ENCODING 96
SWIDTH 360 0
DWIDTH 6 0
BBX 4 4 0 6
BITMAP
C0
C0
30
30
ENDCHAR
STARTCHAR 0061
ENCODING 97
SWIDTH 480 0
DWIDTH 8 0
BBX 6 8 0 0
BITMAP
3C
3C
CC
CC
CC
CC
3C
3C
ENDCHAR
STARTCHAR 0062
ENCODING 98
SWIDTH 480 0
DWIDTH 8 0
BBX 6 10 0 0
BITMAP
C0
C0
F0
F0
CC
CC
CC
CC
F0
F0
ENDCHAR
STARTCHAR 0063
ENCODING 99
SWIDTH 540 0
DWIDTH 9 0
BBX 7 8 0 0
BITMAP
FE
FE
C0
C0
C0
C0
FE
FE
ENDCHAR
STARTCHAR 0064
ENCODING 100
SWIDTH 480 0
DWIDTH 8 0
BBX 6 10 0 0
BITMAP
0C
0C
3C
3C
CC
CC
CC
CC
3C
3C
ENDCHAR
STARTCHAR 0065
ENCODING 101
SWIDTH 480 0
DWIDTH 8 0
BBX 6 8 0 0
BITMAP
30
30
CC
CC
F0
F0
3C
3C
ENDCHAR
STARTCHAR 0066
ENCODING 102
SWIDTH 480 0
DWIDTH 8 0
BBX 6 10 0 0
BITMAP
3C
3C
30
30
FC
FC
30
30
30
30
ENDCHAR
STARTCHAR 0067
ENCODING 103
SWIDTH 480 0
DWIDTH 8 0
BBX 6 10 0 -2
BITMAP
FC
FC
CC
CC
FC
FC
0C
0C
F0
F0
ENDCHAR
STARTCHAR 0068
ENCODING 104
SWIDTH 480 0
DWIDTH 8 0
BBX 6 10 0 0
BITMAP
C0
C0
F0
F0
CC
CC
CC
CC
CC
CC
ENDCHAR
STARTCHAR 0069
ENCODING 105
SWIDTH 240 0
DWIDTH 4 0
BBX 2 10 0 0
BITMAP
C0
C0
00
00
C0
C0
C0
C0
C0
C0
ENDCHAR
STARTCHAR 006A
ENCODING 106
SWIDTH 360 0
DWIDTH 6 0
BBX 4 12 0 -2
BITMAP
30
30
00
00
30
30
30
30
30
30
C0
C0
ENDCHAR
STARTCHAR 006B
ENCODING 107
SWIDTH 480 0
DWIDTH 8 0
BBX 6 10 0 0
BITMAP
C0
C0
CC
CC
F0
F0
CC
CC
CC
CC
ENDCHAR
STARTCHAR 006C
ENCODING 108
SWIDTH 360 0
DWIDTH 6 0
BBX 4 10 0 0
BITMAP
F0
F0
30
30
30
30
30
30
30
30
ENDCHAR
STARTCHAR 006D
ENCODING 109
SWIDTH 720 0
DWIDTH 12 0
BBX 10 8 0 0
BITMAP
FFC0
FFC0
CCC0
CCC0
CCC0
CCC0
CCC0
CCC0
ENDCHAR
STARTCHAR 006E
ENCODING 110
SWIDTH 480 0
DWIDTH 8 0
BBX 6 8 0 0
BITMAP
FC
FC
CC
CC
CC
CC
CC
CC
ENDCHAR
STARTCHAR 006F
ENCODING 111
SWIDTH 480 0
DWIDTH 8 0
BBX 6 8 0 0
BITMAP
FC
FC
CC
CC
CC
CC
FC
FC
ENDCHAR
STARTCHAR 0070
ENCODING 112
SWIDTH 480 0
DWIDTH 8 0
BBX 6 10 0 -2
BITMAP
F0
F0
CC
CC
CC
CC
F0
F0
C0
C0
ENDCHAR
STARTCHAR 0071
ENCODING 113
SWIDTH 480 0
DWIDTH 8 0
BBX 6 10 0 -2
BITMAP
3C
3C
CC
CC
CC
CC
3C
3C
0C
0C
ENDCHAR
STARTCHAR 0072
ENCODING 114
SWIDTH 480 0
DWIDTH 8 0
BBX 6 8 0 0
BITMAP
FC
FC
CC
CC
C0
C0
C0
C0
ENDCHAR
STARTCHAR 0073
ENCODING 115
SWIDTH 480 0
DWIDTH 8 0
BBX 6 8 0 0
BITMAP
3C
3C
C0
C0
0C
0C
F0
F0
ENDCHAR
STARTCHAR 0074
ENCODING 116
SWIDTH 480 0
DWIDTH 8 0
BBX 6 10 0 0
BITMAP
30
30
FC
FC
30
30
30
30
3C
3C
ENDCHAR
STARTCHAR 0075
ENCODING 117
SWIDTH 480 0
DWIDTH 8 0
BBX 6 8 0 0
BITMAP
CC
CC
CC
CC
CC
CC
FC
FC
ENDCHAR
STARTCHAR 0076
ENCODING 118
SWIDTH 480 0
DWIDTH 8 0
BBX 6 8 0 0
BITMAP
CC
CC
CC
CC
CC
CC
30
30
ENDCHAR
STARTCHAR 0077
ENCODING 119
SWIDTH 720 0
DWIDTH 12 0
BBX 10 8 0 0
BITMAP
CCC0
CCC0
CCC0
CCC0
CCC0
CCC0
FFC0
FFC0
ENDCHAR
STARTCHAR 0078
ENCODING 120
SWIDTH 480 0
DWIDTH 8 0
BBX 6 8 0 0
BITMAP
CC
CC
30
30
CC
CC
CC
CC
ENDCHAR
STARTCHAR 0079
ENCODING 121
SWIDTH 480 0
DWIDTH 8 0
BBX 6 10 0 -2
BITMAP
CC
CC
CC
CC
FC
FC
0C
0C
F0
F0
ENDCHAR
STARTCHAR 007A
ENCODING 122
SWIDTH 480 0
DWIDTH 8 0
BBX 6 8 0 0
BITMAP
FC
FC
0C
0C
C0
C0
FC
FC
ENDCHAR
STARTCHAR 007B
ENCODING 123
SWIDTH 480 0
DWIDTH 8 0
BBX 6 10 0 0
BITMAP
3C
3C
30
30
F0
F0
30
30
3C
3C
ENDCHAR
STARTCHAR 007C
ENCODING 124
SWIDTH 240 0
DWIDTH 4 0
BBX 2 10 0 0
BITMAP
C0
C0
C0
C0
C0
C0
C0
C0
C0
C0
ENDCHAR
STARTCHAR 007D
ENCODING 125
SWIDTH 480 0
DWIDTH 8 0
BBX 6 10 0 0
BITMAP
F0
F0
30
30
3C
3C
30
30
F0
F0
ENDCHAR
STARTCHAR 007E
ENCODING 126
SWIDTH 600 0
DWIDTH 10 0
BBX 8 4 0 4
BITMAP
33
33
CC
CC
ENDCHAR
STARTCHAR 00A0
ENCODING 160
SWIDTH 480 0
DWIDTH 8 0
BBX 0 0 0 0
BITMAP
ENDCHAR
STARTCHAR 00A1
ENCODING 161
SWIDTH 360 0
DWIDTH 6 0
BBX 2 10 2 -2
BITMAP
C0
C0
00
00
C0
C0
C0
C0
C0
C0
ENDCHAR
STARTCHAR 00A2
ENCODING 162
SWIDTH 540 0
DWIDTH 9 0
BBX 7 10 0 0
BITMAP
30
30
FE
FE
C0
C0
FE
FE
30
30
ENDCHAR
STARTCHAR 00A3
ENCODING 163
SWIDTH 480 0
DWIDTH 8 0
BBX 6 10 0 0
BITMAP
3C
3C
30
30
FC
FC
30
30
FC
FC
ENDCHAR
STARTCHAR 00A5
ENCODING 165
SWIDTH 480 0
DWIDTH 8 0
BBX 6 10 0 0
BITMAP
CC
CC
FC
FC
30
30
FC
FC
30
30
ENDCHAR
STARTCHAR 00A6
ENCODING 166
SWIDTH 240 0
DWIDTH 4 0
BBX 2 10 0 0
BITMAP
C0
C0
C0
C0
00
00
C0
C0
C0
C0
ENDCHAR
STARTCHAR 00A7
ENCODING 167
SWIDTH 480 0
DWIDTH 8 0
BBX 6 10 0 0
BITMAP
FC
FC
C0
C0
30
30
0C
0C
FC
FC
ENDCHAR
STARTCHAR 00A8
ENCODING 168
SWIDTH 480 0
DWIDTH 8 0
BBX 6 2 0 8
BITMAP
CC
CC
ENDCHAR
STARTCHAR 00A9
ENCODING 169
SWIDTH 540 0
DWIDTH 9 0
BBX 7 6 0 2
BITMAP
FE
FE
C0
C0
FE
FE
ENDCHAR
STARTCHAR 00AA
ENCODING 170
SWIDTH 480 0
DWIDTH 8 0
BBX 6 6 0 4
BITMAP
3C
3C
CC
CC
3C
3C
ENDCHAR
STARTCHAR 00AB
ENCODING 171
SWIDTH 720 0
DWIDTH 12 0
BBX 10 6 0 2
BITMAP
30C0
30C0
C300
C300
30C0
30C0
ENDCHAR
STARTCHAR 00AC
ENCODING 172
SWIDTH 480 0
DWIDTH 8 0
BBX 6 4 0 2
BITMAP
FC
FC
0C
0C
ENDCHAR
STARTCHAR 00AD
ENCODING 173
SWIDTH 360 0
DWIDTH 6 0
BBX 4 2 0 4
BITMAP
F0
F0
ENDCHAR
STARTCHAR 00AE
ENCODING 174
SWIDTH 480 0
DWIDTH 8 0
BBX 6 6 0 2
BITMAP
FC
FC
F0
F0
CC
CC
ENDCHAR
STARTCHAR 00AF
ENCODING 175
SWIDTH 480 0
DWIDTH 8 0
BBX 6 2 0 8
BITMAP
FC
FC
ENDCHAR
STARTCHAR 00B0
ENCODING 176
SWIDTH 240 0
DWIDTH 4 0
BBX 2 2 0 8
BITMAP
C0
C0
ENDCHAR
STARTCHAR 00B1
ENCODING 177
SWIDTH 480 0
DWIDTH 8 0
BBX 6 10 0 0
BITMAP
30
30
FC
FC
30
30
00
00
FC
FC
ENDCHAR
STARTCHAR 00B2
ENCODING 178
SWIDTH 480 0
DWIDTH 8 0
BBX 6 6 0 4
BITMAP
F0
F0
30
30
3C
3C
ENDCHAR
STARTCHAR 00B3
ENCODING 179
SWIDTH 360 0
DWIDTH 6 0
BBX 4 6 0 4
BITMAP
F0
F0
30
30
F0
F0
ENDCHAR
STARTCHAR 00B4
ENCODING 180
SWIDTH 360 0
DWIDTH 6 0
BBX 4 4 0 6
BITMAP
30
30
C0
C0
ENDCHAR
STARTCHAR 00B5
ENCODING 181
SWIDTH 480 0
DWIDTH 8 0
BBX 6 10 0 -2
BITMAP
CC
CC
CC
CC
CC
CC
FC
FC
C0
C0
ENDCHAR
STARTCHAR 00B6
ENCODING 182
SWIDTH 480 0
DWIDTH 8 0
BBX 6 10 0 0
BITMAP
FC
FC
FC
FC
FC
FC
3C
3C
3C
3C
ENDCHAR
STARTCHAR 00B7
ENCODING 183
SWIDTH 240 0
DWIDTH 4 0
BBX 2 2 0 4
BITMAP
C0
C0
ENDCHAR
STARTCHAR 00B8
ENCODING 184
SWIDTH 240 0
DWIDTH 4 0
BBX 2 2 0 -2
BITMAP
C0
C0
ENDCHAR
STARTCHAR 00B9
ENCODING 185
SWIDTH 360 0
DWIDTH 6 0
BBX 4 6 0 4
BITMAP
F0
F0
30
30
30
30
ENDCHAR
STARTCHAR 00BA
ENCODING 186
SWIDTH 480 0
DWIDTH 8 0
BBX 6 6 0 4
BITMAP
FC
FC
CC
CC
FC
FC
ENDCHAR
STARTCHAR 00BB
ENCODING 187
SWIDTH 720 0
DWIDTH 12 0
BBX 10 6 0 2
BITMAP
C300
C300
30C0
30C0
C300
C300
ENDCHAR
STARTCHAR 00BC
ENCODING 188
SWIDTH 720 0
DWIDTH 12 0
BBX 10 10 0 0
BITMAP
C000
C000
C000
C000
CCC0
CCC0
0FC0
0FC0
00C0
00C0
ENDCHAR
STARTCHAR 00BD
ENCODING 189
SWIDTH 780 0
DWIDTH 13 0
BBX 11 10 0 0
BITMAP
C000
C000
C000
C000
CF00
CF00
0300
0300
03E0
03E0
ENDCHAR
STARTCHAR 00BE
ENCODING 190
SWIDTH 720 0
DWIDTH 12 0
BBX 10 10 0 0
BITMAP
F000
F000
3000
3000
F3C0
F3C0
03C0
03C0
00C0
00C0
ENDCHAR
STARTCHAR 00BF
ENCODING 191
SWIDTH 540 0
DWIDTH 9 0
BBX 7 10 0 -2
BITMAP
30
30
00
00
F0
F0
C0
C0
FE
FE
ENDCHAR
STARTCHAR 00C0
ENCODING 192
SWIDTH 480 0
DWIDTH 8 0
BBX 6 12 0 0
BITMAP
F0
F0
00
00
FC
FC
CC
CC
FC
FC
CC
CC
ENDCHAR
STARTCHAR 00C1
ENCODING 193
SWIDTH 480 0
DWIDTH 8 0
BBX 6 12 0 0
BITMAP
3C
3C
00
00
FC
FC
CC
CC
FC
FC
CC
CC
ENDCHAR
STARTCHAR 00C2
ENCODING 194
SWIDTH 480 0
DWIDTH 8 0
BBX 6 12 0 0
BITMAP
FC
FC
00
00
FC
FC
CC
CC
FC
FC
CC
CC
ENDCHAR
STARTCHAR 00C3
ENCODING 195
SWIDTH 480 0
DWIDTH 8 0
BBX 6 12 0 0
BITMAP
FC
FC
00
00
FC
FC
CC
CC
FC
FC
CC
CC
ENDCHAR
STARTCHAR 00C4
ENCODING 196
SWIDTH 480 0
DWIDTH 8 0
BBX 6 12 0 0
BITMAP
CC
CC
00
00
FC
FC
CC
CC
FC
FC
CC
CC
ENDCHAR
STARTCHAR 00C5
ENCODING 197
SWIDTH 480 0
DWIDTH 8 0
BBX 6 12 0 0
BITMAP
30
30
00
00
FC
FC
CC
CC
FC
FC
CC
CC
ENDCHAR
STARTCHAR 00C6
ENCODING 198
SWIDTH 780 0
DWIDTH 13 0
BBX 11 10 0 0
BITMAP
FFE0
FFE0
CC00
CC00
FFE0
FFE0
CC00
CC00
CFE0
CFE0
ENDCHAR
STARTCHAR 00C7
ENCODING 199
SWIDTH 540 0
DWIDTH 9 0
BBX 7 12 0 -2
BITMAP
FE
FE
C0
C0
C0
C0
C0
C0
FE
FE
30
30
ENDCHAR
STARTCHAR 00C8
ENCODING 200
SWIDTH 540 0
DWIDTH 9 0
BBX 7 12 0 0
BITMAP
F0
F0
00
00
FE
FE
F0
F0
C0
C0
FE
FE
ENDCHAR
STARTCHAR 00C9
ENCODING 201
SWIDTH 480 0
DWIDTH 8 0
BBX 6 12 0 0
BITMAP
3C
3C
00
00
FC
FC
F0
F0
C0
C0
FC
FC
ENDCHAR
STARTCHAR 00CA
ENCODING 202
SWIDTH 480 0
DWIDTH 8 0
BBX 6 12 0 0
BITMAP
FC
FC
00
00
FC
FC
F0
F0
C0
C0
FC
FC
ENDCHAR
STARTCHAR 00CB
ENCODING 203
SWIDTH 480 0
DWIDTH 8 0
BBX 6 12 0 0
BITMAP
CC
CC
00
00
FC
FC
F0
F0
C0
C0
FC
FC
ENDCHAR
STARTCHAR 00CC
ENCODING 204
SWIDTH 480 0
DWIDTH 8 0
BBX 6 12 0 0
BITMAP
F0
F0
00
00
FC
FC
30
30
30
30
FC
FC
ENDCHAR
STARTCHAR 00CD
ENCODING 205
SWIDTH 480 0
DWIDTH 8 0
BBX 6 12 0 0
BITMAP
3C
3C
00
00
FC
FC
30
30
30
30
FC
FC
ENDCHAR
STARTCHAR 00CE
ENCODING 206
SWIDTH 480 0
DWIDTH 8 0
BBX 6 12 0 0
BITMAP
FC
FC
00
00
FC
FC
30
30
30
30
FC
FC
ENDCHAR
STARTCHAR 00CF
ENCODING 207
SWIDTH 480 0
DWIDTH 8 0
BBX 6 12 0 0
BITMAP
CC
CC
00
00
FC
FC
30
30
30
30
FC
FC
ENDCHAR
STARTCHAR 00D0
ENCODING 208
SWIDTH 480 0
DWIDTH 8 0
BBX 6 10 0 0
BITMAP
F0
F0
CC
CC
0C
0C
CC
CC
F0
F0
ENDCHAR
STARTCHAR 00D1
ENCODING 209
SWIDTH 480 0
DWIDTH 8 0
BBX 6 12 0 0
BITMAP
FC
FC
00
00
FC
FC
CC
CC
CC
CC
CC
CC
ENDCHAR
STARTCHAR 00D2
ENCODING 210
SWIDTH 480 0
DWIDTH 8 0
BBX 6 12 0 0
BITMAP
F0
F0
00
00
FC
FC
CC
CC
CC
CC
FC
FC
ENDCHAR
STARTCHAR 00D3
ENCODING 211
SWIDTH 480 0
DWIDTH 8 0
BBX 6 12 0 0
BITMAP
3C
3C
00
00
FC
FC
CC
CC
CC
CC
FC
FC
ENDCHAR
STARTCHAR 00D4
ENCODING 212
SWIDTH 480 0
DWIDTH 8 0
BBX 6 12 0 0
BITMAP
FC
FC
00
00
FC
FC
CC
CC
CC
CC
FC
FC
ENDCHAR
STARTCHAR 00D5
ENCODING 213
SWIDTH 480 0
DWIDTH 8 0
BBX 6 12 0 0
BITMAP
FC
FC
00
00
FC
FC
CC
CC
CC
CC
FC
FC
ENDCHAR
STARTCHAR 00D6
ENCODING 214
SWIDTH 480 0
DWIDTH 8 0
BBX 6 12 0 0
BITMAP
CC
CC
00
00
FC
FC
CC
CC
CC
CC
FC
FC
ENDCHAR
STARTCHAR 00D7
ENCODING 215
SWIDTH 480 0
DWIDTH 8 0
BBX 6 6 0 2
BITMAP
CC
CC
30
30
CC
CC
ENDCHAR
STARTCHAR 00D8
ENCODING 216
SWIDTH 600 0
DWIDTH 10 0
BBX 8 10 0 0
BITMAP
FF
FF
CF
CF
F3
F3
C3
C3
FF
FF
ENDCHAR
STARTCHAR 00D9
ENCODING 217
SWIDTH 480 0
DWIDTH 8 0
BBX 6 12 0 0
BITMAP
F0
F0
00
00
CC
CC
CC
CC
CC
CC
FC
FC
ENDCHAR
STARTCHAR 00DA
ENCODING 218
SWIDTH 480 0
DWIDTH 8 0
BBX 6 12 0 0
BITMAP
3C
3C
00
00
CC
CC
CC
CC
CC
CC
FC
FC
ENDCHAR
STARTCHAR 00DB
ENCODING 219
SWIDTH 480 0
DWIDTH 8 0
BBX 6 12 0 0
BITMAP
FC
FC
00
00
CC
CC
CC
CC
CC
CC
FC
FC
ENDCHAR
STARTCHAR 00DC
ENCODING 220
SWIDTH 480 0
DWIDTH 8 0
BBX 6 12 0 0
BITMAP
CC
CC
00
00
CC
CC
CC
CC
CC
CC
FC
FC
ENDCHAR
STARTCHAR 00DD
ENCODING 221
SWIDTH 480 0
DWIDTH 8 0
BBX 6 12 0 0
BITMAP
3C
3C
00
00
CC
CC
FC
FC
30
30
30
30
ENDCHAR
STARTCHAR 00DE
ENCODING 222
SWIDTH 480 0
DWIDTH 8 0
BBX 6 10 0 0
BITMAP
C0
C0
FC
FC
CC
CC
FC
FC
C0
C0
ENDCHAR
STARTCHAR 00DF
ENCODING 223
SWIDTH 480 0
DWIDTH 8 0
BBX 6 12 0 -2
BITMAP
F0
F0
CC
CC
F0
F0
CC
CC
F0
F0
C0
C0
ENDCHAR
STARTCHAR 00E0
ENCODING 224
SWIDTH 480 0
DWIDTH 8 0
BBX 6 10 0 0
BITMAP
F0
F0
00
00
3C
3C
CC
CC
3C
3C
ENDCHAR
STARTCHAR 00E1
ENCODING 225
SWIDTH 480 0
DWIDTH 8 0
BBX 6 10 0 0
BITMAP
3C
3C
00
00
3C
3C
CC
CC
3C
3C
ENDCHAR
STARTCHAR 00E2
ENCODING 226
SWIDTH 480 0
DWIDTH 8 0
BBX 6 10 0 0
BITMAP
FC
FC
00
00
3C
3C
CC
CC
3C
3C
ENDCHAR
STARTCHAR 00E3
ENCODING 227
SWIDTH 480 0
DWIDTH 8 0
BBX 6 10 0 0
BITMAP
FC
FC
00
00
3C
3C
CC
CC
3C
3C
ENDCHAR
STARTCHAR 00E4
ENCODING 228
SWIDTH 480 0
DWIDTH 8 0
BBX 6 10 0 0
BITMAP
CC
CC
00
00
3C
3C
CC
CC
3C
3C
ENDCHAR
STARTCHAR 00E5
ENCODING 229
SWIDTH 480 0
DWIDTH 8 0
BBX 6 10 0 0
BITMAP
30
30
00
00
3C
3C
CC
CC
3C
3C
ENDCHAR
STARTCHAR 00E6
ENCODING 230
SWIDTH 720 0
DWIDTH 12 0
BBX 10 8 0 0
BITMAP
3F00
3F00
CCC0
CCC0
CF00
CF00
3FC0
3FC0
ENDCHAR
STARTCHAR 00E7
ENCODING 231
SWIDTH 540 0
DWIDTH 9 0
BBX 7 10 0 -2
BITMAP
FE
FE
C0
C0
C0
C0
FE
FE
30
30
ENDCHAR
STARTCHAR 00E8
ENCODING 232
SWIDTH 480 0
DWIDTH 8 0
BBX 6 10 0 0
BITMAP
F0
F0
00
00
3C
3C
C0
C0
3C
3C
ENDCHAR
STARTCHAR 00E9
ENCODING 233
SWIDTH 480 0
DWIDTH 8 0
BBX 6 10 0 0
BITMAP
3C
3C
00
00
3C
3C
C0
C0
3C
3C
ENDCHAR
STARTCHAR 00EA
ENCODING 234
SWIDTH 480 0
DWIDTH 8 0
BBX 6 10 0 0
BITMAP
FC
FC
00
00
3C
3C
C0
C0
3C
3C
ENDCHAR
STARTCHAR 00EB
ENCODING 235
SWIDTH 480 0
DWIDTH 8 0
BBX 6 10 0 0
BITMAP
CC
CC
00
00
3C
3C
C0
C0
3C
3C
ENDCHAR
STARTCHAR 00EC
ENCODING 236
SWIDTH 360 0
DWIDTH 6 0
BBX 4 10 0 0
BITMAP
F0
F0
00
00
30
30
30
30
30
30
ENDCHAR
STARTCHAR 00ED
ENCODING 237
SWIDTH 480 0
DWIDTH 8 0
BBX 4 10 2 0
BITMAP
F0
F0
00
00
C0
C0
C0
C0
C0
C0
ENDCHAR
STARTCHAR 00EE
ENCODING 238
SWIDTH 480 0
DWIDTH 8 0
BBX 6 10 0 0
BITMAP
30
30
CC
CC
00
00
30
30
30
30
ENDCHAR
STARTCHAR 00EF
ENCODING 239
SWIDTH 480 0
DWIDTH 8 0
BBX 6 10 0 0
BITMAP
CC
CC
00
00
30
30
30
30
30
30
ENDCHAR
STARTCHAR 00F0
ENCODING 240
SWIDTH 480 0
DWIDTH 8 0
BBX 6 10 0 0
BITMAP
F0
F0
0C
0C
3C
3C
CC
CC
3C
3C
ENDCHAR
STARTCHAR 00F1
ENCODING 241
SWIDTH 480 0
DWIDTH 8 0
BBX 6 10 0 0
BITMAP
FC
FC
00
00
FC
FC
CC
CC
CC
CC
ENDCHAR
STARTCHAR 00F2
ENCODING 242
SWIDTH 480 0
DWIDTH 8 0
BBX 6 10 0 0
BITMAP
F0
F0
00
00
FC
FC
CC
CC
FC
FC
ENDCHAR
STARTCHAR 00F3
ENCODING 243
SWIDTH 480 0
DWIDTH 8 0
BBX 6 10 0 0
BITMAP
3C
3C
00
00
FC
FC
CC
CC
FC
FC
ENDCHAR
STARTCHAR 00F4
ENCODING 244
SWIDTH 480 0
DWIDTH 8 0
BBX 6 10 0 0
BITMAP
FC
FC
00
00
FC
FC
CC
CC
FC
FC
ENDCHAR
STARTCHAR 00F5
ENCODING 245
SWIDTH 480 0
DWIDTH 8 0
BBX 6 10 0 0
BITMAP
FC
FC
00
00
FC
FC
CC
CC
FC
FC
ENDCHAR
STARTCHAR 00F6
ENCODING 246
SWIDTH 480 0
DWIDTH 8 0
BBX 6 10 0 0
BITMAP
CC
CC
00
00
FC
FC
CC
CC
FC
FC
ENDCHAR
STARTCHAR 00F7
ENCODING 247
SWIDTH 480 0
DWIDTH 8 0
BBX 6 10 0 0
BITMAP
30
30
00
00
FC
FC
00
00
30
30
ENDCHAR
STARTCHAR 00F8
ENCODING 248
SWIDTH 600 0
DWIDTH 10 0
BBX 8 8 0 0
BITMAP
3C
3C
CF
CF
F3
F3
3C
3C
ENDCHAR
STARTCHAR 00F9
ENCODING 249
SWIDTH 480 0
DWIDTH 8 0
BBX 6 10 0 0
BITMAP
F0
F0
00
00
CC
CC
CC
CC
FC
FC
ENDCHAR
STARTCHAR 00FA
ENCODING 250
SWIDTH 480 0
DWIDTH 8 0
BBX 6 10 0 0
BITMAP
3C
3C
00
00
CC
CC
CC
CC
FC
FC
ENDCHAR
STARTCHAR 00FB
ENCODING 251
SWIDTH 480 0
DWIDTH 8 0
BBX 6 10 0 0
BITMAP
FC
FC
00
00
CC
CC
CC
CC
FC
FC
ENDCHAR
STARTCHAR 00FC
ENCODING 252
SWIDTH 480 0
DWIDTH 8 0
BBX 6 10 0 0
BITMAP
CC
CC
00
00
CC
CC
CC
CC
FC
FC
ENDCHAR
STARTCHAR 00FD
ENCODING 253
SWIDTH 480 0
DWIDTH 8 0
BBX 6 12 0 -2
BITMAP
3C
3C
00
00
CC
CC
FC
FC
0C
0C
F0
F0
ENDCHAR
STARTCHAR 00FE
ENCODING 254
SWIDTH 480 0
DWIDTH 8 0
BBX 6 10 0 -2
BITMAP
C0
C0
FC
FC
CC
CC
FC
FC
C0
C0
ENDCHAR
STARTCHAR 00FF
ENCODING 255
SWIDTH 480 0
DWIDTH 8 0
BBX 6 12 0 -2
BITMAP
CC
CC
00
00
CC
CC
FC
FC
0C
0C
F0
F0
ENDCHAR
STARTCHAR 0104
ENCODING 260
SWIDTH 480 0
DWIDTH 8 0
BBX 6 12 0 -2
BITMAP
FC
FC
CC
CC
FC
FC
CC
CC
00
00
3C
3C
ENDCHAR
STARTCHAR 0105
ENCODING 261
SWIDTH 480 0
DWIDTH 8 0
BBX 6 10 0 -2
BITMAP
3C
3C
CC
CC
CC
CC
3C
3C
30
30
ENDCHAR
STARTCHAR 0106
ENCODING 262
SWIDTH 480 0
DWIDTH 8 0
BBX 6 12 0 0
BITMAP
3C
3C
00
00
FC
FC
C0
C0
C0
C0
FC
FC
ENDCHAR
STARTCHAR 0107
ENCODING 263
SWIDTH 480 0
DWIDTH 8 0
BBX 6 10 0 0
BITMAP
3C
3C
00
00
FC
FC
C0
C0
FC
FC
ENDCHAR
STARTCHAR 0118
ENCODING 280
SWIDTH 540 0
DWIDTH 9 0
BBX 7 12 0 -2
BITMAP
FE
FE
C0
C0
FE
FE
C0
C0
FE
FE
30
30
ENDCHAR
STARTCHAR 0119
ENCODING 281
SWIDTH 480 0
DWIDTH 8 0
BBX 6 10 0 -2
BITMAP
30
30
CC
CC
F0
F0
3C
3C
30
30
ENDCHAR
STARTCHAR 0132
ENCODING 306
SWIDTH 600 0
DWIDTH 10 0
BBX 8 10 0 0
BITMAP
C3
C3
C3
C3
C3
C3
C3
C3
CC
CC
ENDCHAR
STARTCHAR 0133
ENCODING 307
SWIDTH 600 0
DWIDTH 10 0
BBX 8 12 0 -2
BITMAP
C3
C3
00
00
C3
C3
C3
C3
C3
C3
0C
0C
ENDCHAR
STARTCHAR 0141
ENCODING 321
SWIDTH 480 0
DWIDTH 8 0
BBX 6 10 0 0
BITMAP
30
30
3C
3C
F0
F0
30
30
3C
3C
ENDCHAR
STARTCHAR 0142
ENCODING 322
SWIDTH 480 0
DWIDTH 8 0
BBX 6 10 0 0
BITMAP
F0
F0
30
30
3C
3C
F0
F0
30
30
ENDCHAR
STARTCHAR 0143
ENCODING 323
SWIDTH 480 0
DWIDTH 8 0
BBX 6 12 0 0
BITMAP
3C
3C
00
00
FC
FC
CC
CC
CC
CC
CC
CC
ENDCHAR
STARTCHAR 0144
ENCODING 324
SWIDTH 480 0
DWIDTH 8 0
BBX 6 10 0 0
BITMAP
3C
3C
00
00
FC
FC
CC
CC
CC
CC
ENDCHAR
STARTCHAR 0152
ENCODING 338
SWIDTH 780 0
DWIDTH 13 0
BBX 11 10 0 0
BITMAP
FFE0
FFE0
CC00
CC00
CFE0
CFE0
CC00
CC00
FFE0
FFE0
ENDCHAR
STARTCHAR 0153
ENCODING 339
SWIDTH 720 0
DWIDTH 12 0
BBX 10 8 0 0
BITMAP
3300
3300
CCC0
CCC0
CF00
CF00
33C0
33C0
ENDCHAR
STARTCHAR 015A
ENCODING 346
SWIDTH 480 0
DWIDTH 8 0
BBX 6 12 0 0
BITMAP
3C
3C
00
00
FC
FC
C0
C0
0C
0C
FC
FC
ENDCHAR
STARTCHAR 015B
ENCODING 347
SWIDTH 480 0
DWIDTH 8 0
BBX 6 10 0 0
BITMAP
3C
3C
00
00
3C
3C
30
30
F0
F0
ENDCHAR
STARTCHAR 0174
ENCODING 372
SWIDTH 720 0
DWIDTH 12 0
BBX 10 12 0 0
BITMAP
3F00
3F00
0000
0000
CCC0
CCC0
CCC0
CCC0
CCC0
CCC0
FFC0
FFC0
ENDCHAR
STARTCHAR 0175
ENCODING 373
SWIDTH 720 0
DWIDTH 12 0
BBX 10 10 0 0
BITMAP
3F00
3F00
0000
0000
CCC0
CCC0
CCC0
CCC0
FFC0
FFC0
ENDCHAR
STARTCHAR 0176
ENCODING 374
SWIDTH 480 0
DWIDTH 8 0
BBX 6 12 0 0
BITMAP
FC
FC
00
00
CC
CC
FC
FC
30
30
30
30
ENDCHAR
STARTCHAR 0177
ENCODING 375
SWIDTH 480 0
DWIDTH 8 0
BBX 6 12 0 -2
BITMAP
FC
FC
00
00
CC
CC
FC
FC
0C
0C
F0
F0
ENDCHAR
STARTCHAR 0178
ENCODING 376
SWIDTH 480 0
DWIDTH 8 0
BBX 6 12 0 0
BITMAP
CC
CC
00
00
CC
CC
FC
FC
30
30
30
30
ENDCHAR
STARTCHAR 0179
ENCODING 377
SWIDTH 480 0
DWIDTH 8 0
BBX 6 12 0 0
BITMAP
3C
3C
00
00
FC
FC
0C
0C
C0
C0
FC
FC
ENDCHAR
STARTCHAR 017A
ENCODING 378
SWIDTH 480 0
DWIDTH 8 0
BBX 6 10 0 0
BITMAP
3C
3C
00
00
F0
F0
30
30
3C
3C
ENDCHAR
STARTCHAR 017B
ENCODING 379
SWIDTH 480 0
DWIDTH 8 0
BBX 6 12 0 0
BITMAP
30
30
00
00
FC
FC
0C
0C
C0
C0
FC
FC
ENDCHAR
STARTCHAR 017C
ENCODING 380
SWIDTH 480 0
DWIDTH 8 0
BBX 6 10 0 0
BITMAP
30
30
00
00
F0
F0
30
30
3C
3C
ENDCHAR
STARTCHAR 0391
ENCODING 913
SWIDTH 480 0
DWIDTH 8 0
BBX 6 10 0 0
BITMAP
FC
FC
CC
CC
FC
FC
CC
CC
CC
CC
ENDCHAR
STARTCHAR 0392
ENCODING 914
SWIDTH 480 0
DWIDTH 8 0
BBX 6 10 0 0
BITMAP
FC
FC
CC
CC
F0
F0
CC
CC
FC
FC
ENDCHAR
STARTCHAR 0393
ENCODING 915
SWIDTH 540 0
DWIDTH 9 0
BBX 7 10 0 0
BITMAP
FE
FE
C0
C0
C0
C0
C0
C0
C0
C0
ENDCHAR
STARTCHAR 0394
ENCODING 916
SWIDTH 480 0
DWIDTH 8 0
BBX 6 10 0 0
BITMAP
30
30
CC
CC
CC
CC
CC
CC
FC
FC
ENDCHAR
STARTCHAR 0395
ENCODING 917
SWIDTH 540 0
DWIDTH 9 0
BBX 7 10 0 0
BITMAP
FE
FE
C0
C0
FE
FE
C0
C0
FE
FE
ENDCHAR
STARTCHAR 0396
ENCODING 918
SWIDTH 480 0
DWIDTH 8 0
BBX 6 10 0 0
BITMAP
FC
FC
0C
0C
30
30
C0
C0
FC
FC
ENDCHAR
STARTCHAR 0397
ENCODING 919
SWIDTH 480 0
DWIDTH 8 0
BBX 6 10 0 0
BITMAP
CC
CC
CC
CC
FC
FC
CC
CC
CC
CC
ENDCHAR
STARTCHAR 0398
ENCODING 920
SWIDTH 480 0
DWIDTH 8 0
BBX 6 10 0 0
BITMAP
FC
FC
CC
CC
FC
FC
CC
CC
FC
FC
ENDCHAR
STARTCHAR 0399
ENCODING 921
SWIDTH 480 0
DWIDTH 8 0
BBX 6 10 0 0
BITMAP
FC
FC
30
30
30
30
30
30
FC
FC
ENDCHAR
STARTCHAR 039A
ENCODING 922
SWIDTH 480 0
DWIDTH 8 0
BBX 6 10 0 0
BITMAP
CC
CC
CC
CC
F0
F0
CC
CC
CC
CC
ENDCHAR
STARTCHAR 039B
ENCODING 923
SWIDTH 480 0
DWIDTH 8 0
BBX 6 10 0 0
BITMAP
30
30
CC
CC
CC
CC
CC
CC
CC
CC
ENDCHAR
STARTCHAR 039C
ENCODING 924
SWIDTH 720 0
DWIDTH 12 0
BBX 10 10 0 0
BITMAP
FFC0
FFC0
CCC0
CCC0
CCC0
CCC0
CCC0
CCC0
CCC0
CCC0
ENDCHAR
STARTCHAR 039D
ENCODING 925
SWIDTH 600 0
DWIDTH 10 0
BBX 8 10 0 0
BITMAP
C3
C3
F3
F3
C3
C3
CF
CF
C3
C3
ENDCHAR
STARTCHAR 039E
ENCODING 926
SWIDTH 480 0
DWIDTH 8 0
BBX 6 10 0 0
BITMAP
FC
FC
00
00
FC
FC
00
00
FC
FC
ENDCHAR
STARTCHAR 039F
ENCODING 927
SWIDTH 480 0
DWIDTH 8 0
BBX 6 10 0 0
BITMAP
FC
FC
CC
CC
CC
CC
CC
CC
FC
FC
ENDCHAR
STARTCHAR 03A0
ENCODING 928
SWIDTH 480 0
DWIDTH 8 0
BBX 6 10 0 0
BITMAP
FC
FC
CC
CC
CC
CC
CC
CC
CC
CC
ENDCHAR
STARTCHAR 03A1
ENCODING 929
SWIDTH 480 0
DWIDTH 8 0
BBX 6 10 0 0
BITMAP
FC
FC
CC
CC
FC
FC
C0
C0
C0
C0
ENDCHAR
STARTCHAR 03A3
ENCODING 931
SWIDTH 540 0
DWIDTH 9 0
BBX 7 10 0 0
BITMAP
FE
FE
C0
C0
30
30
C0
C0
FE
FE
ENDCHAR
STARTCHAR 03A4
ENCODING 932
SWIDTH 480 0
DWIDTH 8 0
BBX 6 10 0 0
BITMAP
FC
FC
30
30
30
30
30
30
30
30
ENDCHAR
STARTCHAR 03A5
ENCODING 933
SWIDTH 480 0
DWIDTH 8 0
BBX 6 10 0 0
BITMAP
CC
CC
CC
CC
FC
FC
30
30
30
30
ENDCHAR
STARTCHAR 03A6
ENCODING 934
SWIDTH 480 0
DWIDTH 8 0
BBX 6 10 0 0
BITMAP
30
30
FC
FC
CC
CC
FC
FC
30
30
ENDCHAR
STARTCHAR 03A7
ENCODING 935
SWIDTH 480 0
DWIDTH 8 0
BBX 6 10 0 0
BITMAP
CC
CC
CC
CC
30
30
CC
CC
CC
CC
ENDCHAR
STARTCHAR 03A8
ENCODING 936
SWIDTH 720 0
DWIDTH 12 0
BBX 10 10 0 0
BITMAP
CCC0
CCC0
CCC0
CCC0
FFC0
FFC0
0C00
0C00
0C00
0C00
ENDCHAR
STARTCHAR 03A9
ENCODING 937
SWIDTH 480 0
DWIDTH 8 0
BBX 6 10 0 0
BITMAP
FC
FC
CC
CC
CC
CC
30
30
FC
FC
ENDCHAR
STARTCHAR 03B1
ENCODING 945
SWIDTH 480 0
DWIDTH 8 0
BBX 6 8 0 0
BITMAP
3C
3C
CC
CC
CC
CC
3C
3C
ENDCHAR
STARTCHAR 03B2
ENCODING 946
SWIDTH 480 0
DWIDTH 8 0
BBX 6 12 0 -2
BITMAP
F0
F0
CC
CC
F0
F0
CC
CC
F0
F0
C0
C0
ENDCHAR
STARTCHAR 03B3
ENCODING 947
SWIDTH 480 0
DWIDTH 8 0
BBX 6 10 0 -2
BITMAP
CC
CC
CC
CC
30
30
30
30
30
30
ENDCHAR
STARTCHAR 03B4
ENCODING 948
SWIDTH 480 0
DWIDTH 8 0
BBX 6 10 0 0
BITMAP
FC
FC
C0
C0
3C
3C
CC
CC
FC
FC
ENDCHAR
STARTCHAR 03B5
ENCODING 949
SWIDTH 480 0
DWIDTH 8 0
BBX 6 8 0 0
BITMAP
3C
3C
F0
F0
C0
C0
3C
3C
ENDCHAR
STARTCHAR 03B6
ENCODING 950
SWIDTH 480 0
DWIDTH 8 0
BBX 6 12 0 -2
BITMAP
CC
CC
30
30
C0
C0
3C
3C
0C
0C
FC
FC
ENDCHAR
STARTCHAR 03B7
ENCODING 951
SWIDTH 480 0
DWIDTH 8 0
BBX 6 10 0 -2
BITMAP
FC
FC
CC
CC
CC
CC
CC
CC
0C
0C
ENDCHAR
STARTCHAR 03B8
ENCODING 952
SWIDTH 480 0
DWIDTH 8 0
BBX 6 10 0 0
BITMAP
30
30
CC
CC
FC
FC
CC
CC
30
30
ENDCHAR
STARTCHAR 03B9
ENCODING 953
SWIDTH 240 0
DWIDTH 4 0
BBX 2 8 0 0
BITMAP
C0
C0
C0
C0
C0
C0
C0
C0
ENDCHAR
STARTCHAR 03BA
ENCODING 954
SWIDTH 480 0
DWIDTH 8 0
BBX 6 8 0 0
BITMAP
CC
CC
F0
F0
CC
CC
CC
CC
ENDCHAR
STARTCHAR 03BB
ENCODING 955
SWIDTH 480 0
DWIDTH 8 0
BBX 6 10 0 0
BITMAP
0C
0C
0C
0C
FC
FC
CC
CC
CC
CC
ENDCHAR
STARTCHAR 03BC
ENCODING 956
SWIDTH 480 0
DWIDTH 8 0
BBX 6 10 0 -2
BITMAP
CC
CC
CC
CC
CC
CC
FC
FC
C0
C0
ENDCHAR
STARTCHAR 03BD
ENCODING 957
SWIDTH 480 0
DWIDTH 8 0
BBX 6 8 0 0
BITMAP
CC
CC
CC
CC
CC
CC
30
30
ENDCHAR
STARTCHAR 03BE
ENCODING 958
SWIDTH 480 0
DWIDTH 8 0
BBX 6 12 0 -2
BITMAP
FC
FC
30
30
3C
3C
30
30
3C
3C
0C
0C
ENDCHAR
STARTCHAR 03BF
ENCODING 959
SWIDTH 480 0
DWIDTH 8 0
BBX 6 8 0 0
BITMAP
FC
FC
CC
CC
CC
CC
FC
FC
ENDCHAR
STARTCHAR 03C0
ENCODING 960
SWIDTH 480 0
DWIDTH 8 0
BBX 6 8 0 0
BITMAP
FC
FC
CC
CC
CC
CC
CC
CC
ENDCHAR
STARTCHAR 03C1
ENCODING 961
SWIDTH 480 0
DWIDTH 8 0
BBX 6 10 0 -2
BITMAP
FC
FC
CC
CC
CC
CC
FC
FC
C0
C0
ENDCHAR
STARTCHAR 03C2
ENCODING 962
SWIDTH 480 0
DWIDTH 8 0
BBX 6 10 0 -2
BITMAP
FC
FC
C0
C0
C0
C0
FC
FC
0C
0C
ENDCHAR
STARTCHAR 03C3
ENCODING 963
SWIDTH 660 0
DWIDTH 11 0
BBX 9 8 0 0
BITMAP
FF80
FF80
CC00
CC00
CC00
CC00
FC00
FC00
ENDCHAR
STARTCHAR 03C4
ENCODING 964
SWIDTH 480 0
DWIDTH 8 0
BBX 6 8 0 0
BITMAP
FC
FC
30
30
30
30
30
30
ENDCHAR
STARTCHAR 03C5
ENCODING 965
SWIDTH 480 0
DWIDTH 8 0
BBX 6 8 0 0
BITMAP
CC
CC
CC
CC
CC
CC
FC
FC
ENDCHAR
STARTCHAR 03C6
ENCODING 966
SWIDTH 480 0
DWIDTH 8 0
BBX 6 10 0 -2
BITMAP
30
30
FC
FC
CC
CC
FC
FC
30
30
ENDCHAR
STARTCHAR 03C7
ENCODING 967
SWIDTH 480 0
DWIDTH 8 0
BBX 6 10 0 -2
BITMAP
CC
CC
CC
CC
30
30
CC
CC
CC
CC
ENDCHAR
STARTCHAR 03C8
ENCODING 968
SWIDTH 720 0
DWIDTH 12 0
BBX 10 10 0 -2
BITMAP
CCC0
CCC0
CCC0
CCC0
CCC0
CCC0
FFC0
FFC0
0C00
0C00
ENDCHAR
STARTCHAR 03C9
ENCODING 969
SWIDTH 720 0
DWIDTH 12 0
BBX 10 8 0 0
BITMAP
C0C0
C0C0
C0C0
C0C0
CCC0
CCC0
FFC0
FFC0
ENDCHAR
STARTCHAR 0401
ENCODING 1025
SWIDTH 480 0
DWIDTH 8 0
BBX 6 12 0 0
BITMAP
CC
CC
00
00
FC
FC
F0
F0
C0
C0
FC
FC
ENDCHAR
STARTCHAR 0410
ENCODING 1040
SWIDTH 480 0
DWIDTH 8 0
BBX 6 10 0 0
BITMAP
FC
FC
CC
CC
FC
FC
CC
CC
CC
CC
ENDCHAR
STARTCHAR 0411
ENCODING 1041
SWIDTH 480 0
DWIDTH 8 0
BBX 6 10 0 0
BITMAP
FC
FC
C0
C0
FC
FC
CC
CC
FC
FC
ENDCHAR
STARTCHAR 0412
ENCODING 1042
SWIDTH 480 0
DWIDTH 8 0
BBX 6 10 0 0
BITMAP
FC
FC
CC
CC
F0
F0
CC
CC
FC
FC
ENDCHAR
STARTCHAR 0413
ENCODING 1043
SWIDTH 540 0
DWIDTH 9 0
BBX 7 10 0 0
BITMAP
FE
FE
C0
C0
C0
C0
C0
C0
C0
C0
ENDCHAR
STARTCHAR 0414
ENCODING 1044
SWIDTH 480 0
DWIDTH 8 0
BBX 6 10 0 0
BITMAP
30
30
CC
CC
CC
CC
CC
CC
FC
FC
ENDCHAR
STARTCHAR 0415
ENCODING 1045
SWIDTH 540 0
DWIDTH 9 0
BBX 7 10 0 0
BITMAP
FE
FE
C0
C0
FE
FE
C0
C0
FE
FE
ENDCHAR
STARTCHAR 0416
ENCODING 1046
SWIDTH 720 0
DWIDTH 12 0
BBX 10 10 0 0
BITMAP
CCC0
CCC0
CCC0
CCC0
3F00
3F00
CCC0
CCC0
CCC0
CCC0
ENDCHAR
STARTCHAR 0417
ENCODING 1047
SWIDTH 480 0
DWIDTH 8 0
BBX 6 10 0 0
BITMAP
FC
FC
0C
0C
F0
F0
0C
0C
FC
FC
ENDCHAR
STARTCHAR 0418
ENCODING 1048
SWIDTH 480 0
DWIDTH 8 0
BBX 6 10 0 0
BITMAP
CC
CC
CC
CC
CC
CC
CC
CC
FC
FC
ENDCHAR
STARTCHAR 0419
ENCODING 1049
SWIDTH 480 0
DWIDTH 8 0
BBX 6 12 0 0
BITMAP
FC
FC
00
00
CC
CC
CC
CC
CC
CC
FC
FC
ENDCHAR
STARTCHAR 041A
ENCODING 1050
SWIDTH 480 0
DWIDTH 8 0
BBX 6 10 0 0
BITMAP
CC
CC
CC
CC
F0
F0
CC
CC
CC
CC
ENDCHAR
STARTCHAR 041B
ENCODING 1051
SWIDTH 600 0
DWIDTH 10 0
BBX 8 10 0 0
BITMAP
3F
3F
33
33
33
33
33
33
C3
C3
ENDCHAR
STARTCHAR 041C
ENCODING 1052
SWIDTH 720 0
DWIDTH 12 0
BBX 10 10 0 0
BITMAP
FFC0
FFC0
CCC0
CCC0
CCC0
CCC0
CCC0
CCC0
CCC0
CCC0
ENDCHAR
STARTCHAR 041D
ENCODING 1053
SWIDTH 480 0
DWIDTH 8 0
BBX 6 10 0 0
BITMAP
CC
CC
CC
CC
FC
FC
CC
CC
CC
CC
ENDCHAR
STARTCHAR 041E
ENCODING 1054
SWIDTH 480 0
DWIDTH 8 0
BBX 6 10 0 0
BITMAP
FC
FC
CC
CC
CC
CC
CC
CC
FC
FC
ENDCHAR
STARTCHAR 041F
ENCODING 1055
SWIDTH 480 0
DWIDTH 8 0
BBX 6 10 0 0
BITMAP
FC
FC
CC
CC
CC
CC
CC
CC
CC
CC
ENDCHAR
STARTCHAR 0420
ENCODING 1056
SWIDTH 480 0
DWIDTH 8 0
BBX 6 10 0 0
BITMAP
FC
FC
CC
CC
FC
FC
C0
C0
C0
C0
ENDCHAR
STARTCHAR 0421
ENCODING 1057
SWIDTH 540 0
DWIDTH 9 0
BBX 7 10 0 0
BITMAP
FE
FE
C0
C0
C0
C0
C0
C0
FE
FE
ENDCHAR
STARTCHAR 0422
ENCODING 1058
SWIDTH 480 0
DWIDTH 8 0
BBX 6 10 0 0
BITMAP
FC
FC
30
30
30
30
30
30
30
30
ENDCHAR
STARTCHAR 0423
ENCODING 1059
SWIDTH 480 0
DWIDTH 8 0
BBX 6 10 0 0
BITMAP
CC
CC
CC
CC
FC
FC
0C
0C
FC
FC
ENDCHAR
STARTCHAR 0424
ENCODING 1060
SWIDTH 480 0
DWIDTH 8 0
BBX 6 10 0 0
BITMAP
30
30
FC
FC
CC
CC
FC
FC
30
30
ENDCHAR
STARTCHAR 0425
ENCODING 1061
SWIDTH 480 0
DWIDTH 8 0
BBX 6 10 0 0
BITMAP
CC
CC
CC
CC
30
30
CC
CC
CC
CC
ENDCHAR
STARTCHAR 0426
ENCODING 1062
SWIDTH 480 0
DWIDTH 8 0
BBX 6 12 0 -2
BITMAP
CC
CC
CC
CC
CC
CC
CC
CC
FC
FC
0C
0C
ENDCHAR
STARTCHAR 0427
ENCODING 1063
SWIDTH 480 0
DWIDTH 8 0
BBX 6 10 0 0
BITMAP
CC
CC
CC
CC
FC
FC
0C
0C
0C
0C
ENDCHAR
STARTCHAR 0428
ENCODING 1064
SWIDTH 720 0
DWIDTH 12 0
BBX 10 10 0 0
BITMAP
CCC0
CCC0
CCC0
CCC0
CCC0
CCC0
CCC0
CCC0
FFC0
FFC0
ENDCHAR
STARTCHAR 0429
ENCODING 1065
SWIDTH 720 0
DWIDTH 12 0
BBX 10 12 0 -2
BITMAP
CCC0
CCC0
CCC0
CCC0
CCC0
CCC0
CCC0
CCC0
FFC0
FFC0
00C0
00C0
ENDCHAR
STARTCHAR 042A
ENCODING 1066
SWIDTH 600 0
DWIDTH 10 0
BBX 8 10 0 0
BITMAP
F0
F0
30
30
3F
3F
33
33
3F
3F
ENDCHAR
STARTCHAR 042B
ENCODING 1067
SWIDTH 720 0
DWIDTH 12 0
BBX 10 10 0 0
BITMAP
C0C0
C0C0
C0C0
C0C0
FCC0
FCC0
CCC0
CCC0
FCC0
FCC0
ENDCHAR
STARTCHAR 042C
ENCODING 1068
SWIDTH 480 0
DWIDTH 8 0
BBX 6 10 0 0
BITMAP
C0
C0
C0
C0
FC
FC
CC
CC
FC
FC
ENDCHAR
STARTCHAR 042D
ENCODING 1069
SWIDTH 480 0
DWIDTH 8 0
BBX 6 10 0 0
BITMAP
F0
F0
0C
0C
FC
FC
0C
0C
F0
F0
ENDCHAR
STARTCHAR 042E
ENCODING 1070
SWIDTH 720 0
DWIDTH 12 0
BBX 10 10 0 0
BITMAP
CFC0
CFC0
CCC0
CCC0
FCC0
FCC0
CCC0
CCC0
CFC0
CFC0
ENDCHAR
STARTCHAR 042F
ENCODING 1071
SWIDTH 480 0
DWIDTH 8 0
BBX 6 10 0 0
BITMAP
FC
FC
CC
CC
3C
3C
CC
CC
CC
CC
ENDCHAR
STARTCHAR 0430
ENCODING 1072
SWIDTH 480 0
DWIDTH 8 0
BBX 6 8 0 0
BITMAP
3C
3C
CC
CC
CC
CC
3C
3C
ENDCHAR
STARTCHAR 0431
ENCODING 1073
SWIDTH 480 0
DWIDTH 8 0
BBX 6 10 0 0
BITMAP
3C
3C
C0
C0
FC
FC
CC
CC
FC
FC
ENDCHAR
STARTCHAR 0432
ENCODING 1074
SWIDTH 480 0
DWIDTH 8 0
BBX 6 8 0 0
BITMAP
F0
F0
FC
FC
CC
CC
F0
F0
ENDCHAR
STARTCHAR 0433
ENCODING 1075
SWIDTH 540 0
DWIDTH 9 0
BBX 7 8 0 0
BITMAP
FE
FE
C0
C0
C0
C0
C0
C0
ENDCHAR
STARTCHAR 0434
ENCODING 1076
SWIDTH 480 0
DWIDTH 8 0
BBX 6 8 0 0
BITMAP
30
30
CC
CC
CC
CC
FC
FC
ENDCHAR
STARTCHAR 0435
ENCODING 1077
SWIDTH 480 0
DWIDTH 8 0
BBX 6 8 0 0
BITMAP
30
30
CC
CC
F0
F0
3C
3C
ENDCHAR
STARTCHAR 0436
ENCODING 1078
SWIDTH 720 0
DWIDTH 12 0
BBX 10 8 0 0
BITMAP
CCC0
CCC0
3F00
3F00
CCC0
CCC0
CCC0
CCC0
ENDCHAR
STARTCHAR 0437
ENCODING 1079
SWIDTH 480 0
DWIDTH 8 0
BBX 6 8 0 0
BITMAP
FC
FC
3C
3C
0C
0C
FC
FC
ENDCHAR
STARTCHAR 0438
ENCODING 1080
SWIDTH 480 0
DWIDTH 8 0
BBX 6 8 0 0
BITMAP
CC
CC
CC
CC
CC
CC
FC
FC
ENDCHAR
STARTCHAR 0439
ENCODING 1081
SWIDTH 480 0
DWIDTH 8 0
BBX 6 10 0 0
BITMAP
FC
FC
00
00
CC
CC
CC
CC
FC
FC
ENDCHAR
STARTCHAR 043A
ENCODING 1082
SWIDTH 480 0
DWIDTH 8 0
BBX 6 8 0 0
BITMAP
CC
CC
F0
F0
CC
CC
CC
CC
ENDCHAR
STARTCHAR 043B
ENCODING 1083
SWIDTH 600 0
DWIDTH 10 0
BBX 8 8 0 0
BITMAP
3F
3F
33
33
33
33
C3
C3
ENDCHAR
STARTCHAR 043C
ENCODING 1084
SWIDTH 720 0
DWIDTH 12 0
BBX 10 8 0 0
BITMAP
F3C0
F3C0
CCC0
CCC0
CCC0
CCC0
CCC0
CCC0
ENDCHAR
STARTCHAR 043D
ENCODING 1085
SWIDTH 480 0
DWIDTH 8 0
BBX 6 8 0 0
BITMAP
CC
CC
FC
FC
CC
CC
CC
CC
ENDCHAR
STARTCHAR 043E
ENCODING 1086
SWIDTH 480 0
DWIDTH 8 0
BBX 6 8 0 0
BITMAP
FC
FC
CC
CC
CC
CC
FC
FC
ENDCHAR
STARTCHAR 043F
ENCODING 1087
SWIDTH 480 0
DWIDTH 8 0
BBX 6 8 0 0
BITMAP
FC
FC
CC
CC
CC
CC
CC
CC
ENDCHAR
STARTCHAR 0440
ENCODING 1088
SWIDTH 480 0
DWIDTH 8 0
BBX 6 10 0 -2
BITMAP
F0
F0
CC
CC
CC
CC
F0
F0
C0
C0
ENDCHAR
STARTCHAR 0441
ENCODING 1089
SWIDTH 540 0
DWIDTH 9 0
BBX 7 8 0 0
BITMAP
FE
FE
C0
C0
C0
C0
FE
FE
ENDCHAR
STARTCHAR 0442
ENCODING 1090
SWIDTH 480 0
DWIDTH 8 0
BBX 6 8 0 0
BITMAP
FC
FC
30
30
30
30
30
30
ENDCHAR
STARTCHAR 0443
ENCODING 1091
SWIDTH 480 0
DWIDTH 8 0
BBX 6 10 0 -2
BITMAP
CC
CC
CC
CC
FC
FC
0C
0C
F0
F0
ENDCHAR
STARTCHAR 0444
ENCODING 1092
SWIDTH 480 0
DWIDTH 8 0
BBX 6 12 0 -2
BITMAP
30
30
FC
FC
CC
CC
CC
CC
FC
FC
30
30
ENDCHAR
STARTCHAR 0445
ENCODING 1093
SWIDTH 480 0
DWIDTH 8 0
BBX 6 8 0 0
BITMAP
CC
CC
30
30
CC
CC
CC
CC
ENDCHAR
STARTCHAR 0446
ENCODING 1094
SWIDTH 480 0
DWIDTH 8 0
BBX 6 10 0 -2
BITMAP
CC
CC
CC
CC
CC
CC
FC
FC
0C
0C
ENDCHAR
STARTCHAR 0447
ENCODING 1095
SWIDTH 480 0
DWIDTH 8 0
BBX 6 8 0 0
BITMAP
CC
CC
FC
FC
0C
0C
0C
0C
ENDCHAR
STARTCHAR 0448
ENCODING 1096
SWIDTH 720 0
DWIDTH 12 0
BBX 10 8 0 0
BITMAP
CCC0
CCC0
CCC0
CCC0
CCC0
CCC0
FFC0
FFC0
ENDCHAR
STARTCHAR 0449
ENCODING 1097
SWIDTH 720 0
DWIDTH 12 0
BBX 10 10 0 -2
BITMAP
CCC0
CCC0
CCC0
CCC0
CCC0
CCC0
FFC0
FFC0
00C0
00C0
ENDCHAR
STARTCHAR 044A
ENCODING 1098
SWIDTH 600 0
DWIDTH 10 0
BBX 8 8 0 0
BITMAP
F0
F0
3C
3C
33
33
3C
3C
ENDCHAR
STARTCHAR 044B
ENCODING 1099
SWIDTH 720 0
DWIDTH 12 0
BBX 10 8 0 0
BITMAP
C0C0
C0C0
F0C0
F0C0
CCC0
CCC0
F0C0
F0C0
ENDCHAR
STARTCHAR 044C
ENCODING 1100
SWIDTH 480 0
DWIDTH 8 0
BBX 6 8 0 0
BITMAP
C0
C0
F0
F0
CC
CC
F0
F0
ENDCHAR
STARTCHAR 044D
ENCODING 1101
SWIDTH 480 0
DWIDTH 8 0
BBX 6 8 0 0
BITMAP
F0
F0
3C
3C
0C
0C
F0
F0
ENDCHAR
STARTCHAR 044E
ENCODING 1102
SWIDTH 720 0
DWIDTH 12 0
BBX 10 8 0 0
BITMAP
CFC0
CFC0
FCC0
FCC0
CCC0
CCC0
CFC0
CFC0
ENDCHAR
STARTCHAR 044F
ENCODING 1103
SWIDTH 480 0
DWIDTH 8 0
BBX 6 8 0 0
BITMAP
3C
3C
CC
CC
3C
3C
CC
CC
ENDCHAR
STARTCHAR 0451
ENCODING 1105
SWIDTH 480 0
DWIDTH 8 0
BBX 6 10 0 0
BITMAP
CC
CC
00
00
3C
3C
C0
C0
3C
3C
ENDCHAR
STARTCHAR 0464
ENCODING 1124
SWIDTH 480 0
DWIDTH 8 0
BBX 6 12 0 0
BITMAP
3C
3C
00
00
FC
FC
CC
CC
FC
FC
CC
CC
ENDCHAR
STARTCHAR 0465
ENCODING 1125
SWIDTH 480 0
DWIDTH 8 0
BBX 6 10 0 0
BITMAP
3C
3C
00
00
3C
3C
CC
CC
3C
3C
ENDCHAR
STARTCHAR 0466
ENCODING 1126
SWIDTH 480 0
DWIDTH 8 0
BBX 6 12 0 0
BITMAP
3C
3C
00
00
FC
FC
F0
F0
C0
C0
FC
FC
ENDCHAR
STARTCHAR 0467
ENCODING 1127
SWIDTH 480 0
DWIDTH 8 0
BBX 6 10 0 0
BITMAP
3C
3C
00
00
3C
3C
C0
C0
3C
3C
ENDCHAR
STARTCHAR 0468
ENCODING 1128
SWIDTH 480 0
DWIDTH 8 0
BBX 6 12 0 0
BITMAP
3C
3C
00
00
CC
CC
CC
CC
CC
CC
FC
FC
ENDCHAR
STARTCHAR 0469
ENCODING 1129
SWIDTH 480 0
DWIDTH 8 0
BBX 6 10 0 0
BITMAP
3C
3C
00
00
CC
CC
CC
CC
FC
FC
ENDCHAR
STARTCHAR 046A
ENCODING 1130
SWIDTH 480 0
DWIDTH 8 0
BBX 6 12 0 0
BITMAP
3C
3C
00
00
FC
FC
CC
CC
CC
CC
FC
FC
ENDCHAR
STARTCHAR 046B
ENCODING 1131
SWIDTH 480 0
DWIDTH 8 0
BBX 6 10 0 0
BITMAP
3C
3C
00
00
FC
FC
CC
CC
FC
FC
ENDCHAR
STARTCHAR 046C
ENCODING 1132
SWIDTH 480 0
DWIDTH 8 0
BBX 6 12 0 0
BITMAP
3C
3C
00
00
CC
CC
FC
FC
0C
0C
FC
FC
ENDCHAR
STARTCHAR 046D
ENCODING 1133
SWIDTH 480 0
DWIDTH 8 0
BBX 6 12 0 -2
BITMAP
3C
3C
00
00
CC
CC
FC
FC
0C
0C
F0
F0
ENDCHAR
STARTCHAR 046E
ENCODING 1134
SWIDTH 480 0
DWIDTH 8 0
BBX 6 12 0 0
BITMAP
3C
3C
00
00
F0
F0
3C
3C
0C
0C
F0
F0
ENDCHAR
STARTCHAR 046F
ENCODING 1135
SWIDTH 480 0
DWIDTH 8 0
BBX 6 10 0 0
BITMAP
3C
3C
00
00
F0
F0
3C
3C
F0
F0
ENDCHAR
STARTCHAR 0470
ENCODING 1136
SWIDTH 720 0
DWIDTH 12 0
BBX 10 12 0 0
BITMAP
0F00
0F00
0000
0000
CFC0
CFC0
FCC0
FCC0
CCC0
CCC0
CFC0
CFC0
ENDCHAR
STARTCHAR 0471
ENCODING 1137
SWIDTH 720 0
DWIDTH 12 0
BBX 10 10 0 0
BITMAP
0F00
0F00
0000
0000
CFC0
CFC0
FCC0
FCC0
CFC0
CFC0
ENDCHAR
STARTCHAR 0472
ENCODING 1138
SWIDTH 480 0
DWIDTH 8 0
BBX 6 12 0 0
BITMAP
3C
3C
00
00
3C
3C
CC
CC
3C
3C
CC
CC
ENDCHAR
STARTCHAR 0473
ENCODING 1139
SWIDTH 480 0
DWIDTH 8 0
BBX 6 10 0 0
BITMAP
3C
3C
00
00
3C
3C
FC
FC
CC
CC
ENDCHAR
STARTCHAR 2014
ENCODING 8212
SWIDTH 720 0
DWIDTH 12 0
BBX 10 2 0 4
BITMAP
FFC0
FFC0
ENDCHAR
STARTCHAR 2018
ENCODING 8216
SWIDTH 360 0
DWIDTH 6 0
BBX 4 4 0 6
BITMAP
C0
C0
F0
F0
ENDCHAR
STARTCHAR 2019
ENCODING 8217
SWIDTH 360 0
DWIDTH 6 0
BBX 4 4 0 6
BITMAP
F0
F0
30
30
ENDCHAR
STARTCHAR 201B
ENCODING 8219
SWIDTH 360 0
DWIDTH 6 0
BBX 4 4 0 6
BITMAP
F0
F0
C0
C0
ENDCHAR
STARTCHAR 201C
ENCODING 8220
SWIDTH 480 0
DWIDTH 8 0
BBX 6 4 0 6
BITMAP
CC
CC
CC
CC
ENDCHAR
STARTCHAR 201D
ENCODING 8221
SWIDTH 480 0
DWIDTH 8 0
BBX 6 4 0 6
BITMAP
CC
CC
CC
CC
ENDCHAR
STARTCHAR 2020
ENCODING 8224
SWIDTH 480 0
DWIDTH 8 0
BBX 6 10 0 0
BITMAP
30
30
FC
FC
30
30
30
30
30
30
ENDCHAR
STARTCHAR 2022
ENCODING 8226
SWIDTH 360 0
DWIDTH 6 0
BBX 4 4 0 2
BITMAP
F0
F0
F0
F0
ENDCHAR
STARTCHAR 2026
ENCODING 8230
SWIDTH 720 0
DWIDTH 12 0
BBX 10 2 0 0
BITMAP
CCC0
CCC0
ENDCHAR
STARTCHAR 20AC
ENCODING 8364
SWIDTH 480 0
DWIDTH 8 0
BBX 6 10 0 0
BITMAP
3C
3C
30
30
FC
FC
30
30
3C
3C
ENDCHAR
STARTCHAR 2122
ENCODING 8482
SWIDTH 780 0
DWIDTH 13 0
BBX 10 6 0 2
BITMAP
FFC0
FFC0
33C0
33C0
33C0
33C0
ENDCHAR
ENDFONT
